<svg version="1" xmlns="http://www.w3.org/2000/svg" width="346.667" height="346.667" viewBox="0 0 260.000000 260.000000"><path d="M107.3 1.2c-.4.7-1 3.8-1.3 6.8-.4 4.8-.9 5.7-4 7.8-5.9 4-7.4 8.6-4.5 14.2 1.5 2.9 1.5 3-1.7 5-1.8 1.1-5.1 2.5-7.3 3.1-6.4 1.7-10.6 5.1-15.9 12.7-4.1 6.1-5.3 8.8-7.7 18.9-1.6 6.5-3.7 13.8-4.8 16.3-2.3 5.7-3.5 21.2-1.9 25.7.9 2.4.8 6.1-.4 16.3-1.4 12.3-1.4 13.6.2 18.9.9 3.1 3.1 7.9 4.8 10.7 2.8 4.4 3.2 6 3.2 11.9 0 5.7.5 7.7 3.5 13.4 5.5 10.4 8.4 13.2 23.1 22.1l13.6 8.3-.6 4.1c-.4 2.2-.8 4.1-.9 4.2-.1.1-4.9.8-10.7 1.4-5.8.6-12.5 1.8-15 2.6s-5.4 1.4-6.5 1.4c-1.1 0-4.4 1.1-7.2 2.5-8 3.7-12 12-7.5 15.7 4.9 4.1 16.2 10 23.5 12.3l8.3 2.6 43.9-.3c39.9-.3 44.5-.5 49-2.2 2.8-1 5.6-2.3 6.4-3 .8-.6 2.2-1 3.3-.8 1 .2 3.1-.7 4.7-2s4.3-3.1 6-4c3.7-2 3.9-4.3 1.1-9.8-3.1-6-9.2-9.6-18.4-10.9-8.3-1.2-26.7-4.9-27.3-5.5-.2-.2-.5-2.3-.6-4.6-.2-3.3.2-4.5 1.8-5.4 13.3-7.7 21.2-14.1 28.1-22.8 4-5.2 4.8-7 6.6-15.6 1.2-6 2.7-10.5 3.9-11.8 1-1.1 3.3-5.8 4.9-10.5 3.4-9.8 3.9-17.2 1.3-20.9-1.6-2.2-1.8-4.8-1.5-23.2.3-23.5-.2-26.7-5.7-34.8-2-3-5.3-8.6-7.2-12.5-4-8.1-13.5-18.1-22.2-23.5-5.6-3.4-5.7-3.6-5.7-8.1 0-3.6-.7-5.4-3-8.4-2.4-3.1-3-4.7-3-8.9-.1-2.8-.7-6.2-1.4-7.6L153.2.5 130.7.3c-17.3-.3-22.8 0-23.4.9zm45 91.5c4.8-.6 5.1-.5 8.9 3.2 2.1 2.2 5.8 4.7 8.3 5.7 3.9 1.7 4.4 2.2 5 6.1.7 4.6 5 9.3 8.6 9.3 1.5 0 1.9.7 1.9 3.4 0 2.5.7 4 2.5 5.4l2.5 2v18.3c0 13.4-.4 19.7-1.5 23.3-.8 2.7-1.5 6.1-1.5 7.5 0 1.4-1.1 3.9-2.5 5.6-6.9 8-17 17.3-22.2 20.4-3.2 1.9-7 4.2-8.6 5.3-3.4 2.3-16.6 5.8-22.1 5.8-8.7 0-18.7-3.4-27.6-9.1-4.7-3.1-11.1-7-14.2-8.8-6.4-3.6-11.7-9.2-15-16-2.2-4.3-2.3-5.8-2.2-23.6.1-10.8.7-21.8 1.4-25.5.7-3.6 1.5-8.4 1.7-10.8.3-2.6 1.4-5.2 2.7-6.6 1.3-1.2 2.6-4.1 3-6.4.4-2.9 1.1-4.2 2.2-4.2.9 0 3.2-1.6 5.2-3.6 3.4-3.4 3.8-3.5 11.6-3.7 6.4-.2 9.3-.8 13.7-3 4.4-2.1 7.1-2.7 12.5-2.7 3.8 0 7.5-.4 8.3-.9.9-.6 3.3 0 6.8 1.6 4.5 2.1 6.5 2.4 10.6 2zM121 217c2.5.5 7.2 1 10.5 1 5.3 0 8-.4 17.1-2.5 1.9-.4 2.3.1 2.9 4.1.3 2.5 1.6 5.5 2.7 6.6 1.8 1.8 1.9 2.3.7 4.4-3.4 6.5-12.8 10.4-24.9 10.4-9.1 0-16.2-3-20.6-8.7-2.4-3.1-2.5-3.7-1.1-4.5.9-.5 2.1-3.4 2.8-6.8 1-5.3 1.4-5.9 3.3-5.5 1.1.3 4.1.9 6.6 1.5z"/><path d="M88.8 115c-3.7 2-6.8 5.4-6.8 7.6 0 .8 1.2.7 4.3-.3 3.3-1.2 7.7-1.4 20.5-1l16.2.4V118c0-4.8-.7-5-17.5-4.9-10.9 0-13.6.3-16.7 1.9zM144.2 113.7l-4.3.4.3 4.2.4 4.2 5.9-.5c13-1.1 27.9-.5 31.4 1.3 1.9.9 3.6 1.5 3.9 1.3 1.3-1.3-4.3-7.6-8.1-9.2-4.3-1.8-19.9-2.7-29.5-1.7zM90.6 127.6c-7.7 2.8-10.8 7.5-9.4 14.2 1.2 5.5 3.8 6.8 16.4 8.2 5.4.5 12.4 1.3 15.5 1.6 5.3.6 5.6.5 8.2-2.6 2.1-2.5 2.7-4.2 2.7-7.9 0-6.4-3.1-11-9-13.3-5.6-2.1-18.9-2.2-24.4-.2zm24.4 3.9c6 3.1 8.5 9.7 5.6 15.2-1.9 3.9-4 4.4-10.1 2.5-2.8-.8-9.2-1.6-14.4-1.8C85.6 147 83 145.7 83 141c0-3.4 3.4-7.9 7.3-9.5 4.1-1.7 21.4-1.7 24.7 0z"/><path d="M102.1 132.9c1.4 2.2.6 4.9-1.7 5.8-.9.3-2.5.1-3.5-.6-1.6-.9-1.9-.8-1.9.7 0 4 6.4 7.1 10.9 5.2 6.1-2.5 6.4-9.8.5-12-4.2-1.6-5.6-1.3-4.3.9zM149.4 127.8c-7.4 2.6-10.4 6.4-10.4 13.1 0 8.3 4.6 12.6 11.7 11.1 2.2-.5 9.1-1.3 15.2-1.8 9.6-.8 11.5-1.2 13.6-3.2 3.2-3 3.5-10.5.5-14.2-4.5-5.8-21-8.5-30.6-5zm23.9 4.4c5.8 2.2 8.5 9 5.3 13.4-1.3 1.6-2.7 1.9-11.3 2-5.4 0-10.7.5-11.8 1.1-2.9 1.5-8.2 2.3-10 1.7-2-.8-4.5-5.6-4.5-8.6 0-3.5 3.7-8.8 7-10.2 3.5-1.4 21-1 25.3.6z"/><path d="M160.6 134.4c.4 1.8 0 2.8-1.7 4-2.1 1.4-2.5 1.4-4.7 0-2.3-1.5-2.4-1.5-1.7.8 1.7 5.9 9.6 7.8 14 3.3 1.4-1.3 2.5-3.3 2.5-4.3 0-2.5-4.1-6.2-6.8-6.2-1.9 0-2.1.4-1.6 2.4zM137.5 151.5c.3 2.7.9 5.3 1.5 5.9 1.1 1.1.2-5.8-1.2-8.9-.6-1.3-.7-.3-.3 3zM121 165c0 3.7 12.1 5.9 17.3 3.1 4.7-2.5 3.4-4-2.5-2.9-3.4.6-6.6.6-9.4-.1-5.2-1.3-5.4-1.3-5.4-.1zM98.2 176c-2.7 1.2-3.9 3.7-2.3 5.3.9.9 1.4.9 2-.2 1-1.6 3.6-.3 9.3 4.6 10.1 8.7 35.5 9.7 46.6 1.7 6.5-4.7 10.2-6.6 10.2-5.4 0 .5.5 1 1 1 1.7 0 1.2-5.7-.6-6.4-2.4-.9-5.4-.7-5.4.4 0 .5.7 1 1.5 1 2.4 0 1.8 1.9-.8 2.5-1.3.4-14.5.5-29.5.3-20-.2-27.4-.6-28.4-1.6-.9-.9-.9-1.2.5-1.2 2.1 0 2.2-1.6.1-2.4-.9-.3-1.6-.6-1.7-.5-.1 0-1.2.4-2.5.9zm51.1 6.7c6.5.6 6.7.7 5.1 2.4-.9 1-4.1 2.8-7.1 3.9-12.5 4.7-37.8 1-40.1-5.8-.4-1.3 29.7-1.7 42.1-.5z"/><path d="M123.5 195c1.3 2 7.4 3.1 11.4 2 6.5-1.7 5.5-2.6-3.5-2.7-4.6 0-8.2.3-7.9.7z"/></svg>